<?xml version="1.0" encoding="UTF-8"?>
<svg width="744px" height="53px" viewBox="0 0 744 53" version="1.1" xmlns="http://www.w3.org/2000/svg" xmlns:xlink="http://www.w3.org/1999/xlink">
    <!-- Generator: Sketch 62 (91390) - https://sketch.com -->
    <title>ALTACAPITALPARTNERS</title>
    <desc>Created with Sketch.</desc>
    <defs>
        <path d="M10.111522,51 L14.591522,39.66 L36.081522,39.66 L40.701522,51 L50.781522,51 L29.431522,1.44 L21.801522,1.44 L0.241522,51 L10.111522,51 Z M33.001522,32.1 L17.601522,32.1 L25.371522,11.94 L33.001522,32.1 Z M83.010753,51 L83.010753,44.16 L64.950753,44.16 L64.950753,8.52 L57.390753,8.52 L57.390753,51 L83.010753,51 Z M101.185039,51 L101.185039,15.36 L114.205039,15.36 L114.205039,8.52 L80.605039,8.52 L80.605039,15.36 L93.625039,15.36 L93.625039,51 L101.185039,51 Z M122.479325,51 L126.319325,41.28 L144.739325,41.28 L148.699325,51 L157.339325,51 L139.039325,8.52 L132.499325,8.52 L114.019325,51 L122.479325,51 Z M142.099325,34.8 L128.899325,34.8 L135.559325,17.52 L142.099325,34.8 Z M203.632737,52.26 C207.272737,52.26 210.702737,51.56 213.922737,50.16 C217.142737,48.76 219.872737,46.52 222.112737,43.44 L222.112737,43.44 L214.832737,38.26 C213.199404,40.36 211.437737,41.8883333 209.547737,42.845 C207.657737,43.8016667 205.709404,44.28 203.702737,44.28 C201.13607,44.28 198.814404,43.8133333 196.737737,42.88 C194.66107,41.9466667 192.87607,40.6633333 191.382737,39.03 C189.889404,37.3966667 188.734404,35.46 187.917737,33.22 C187.10107,30.98 186.692737,28.53 186.692737,25.87 C186.692737,23.3966667 187.10107,21.0866667 187.917737,18.94 C188.734404,16.7933333 189.889404,14.915 191.382737,13.305 C192.87607,11.695 194.66107,10.435 196.737737,9.525 C198.814404,8.615 201.13607,8.16 203.702737,8.16 C205.429404,8.16 207.144404,8.48666667 208.847737,9.14 C210.55107,9.79333333 212.312737,11.1 214.132737,13.06 L214.132737,13.06 L220.992737,8.02 C218.519404,5.17333333 215.847737,3.155 212.977737,1.965 C210.107737,0.775 206.992737,0.18 203.632737,0.18 C199.80607,0.18 196.294404,0.798333333 193.097737,2.035 C189.90107,3.27166667 187.147737,5.03333333 184.837737,7.32 C182.527737,9.60666667 180.719404,12.3716667 179.412737,15.615 C178.10607,18.8583333 177.452737,22.4633333 177.452737,26.43 C177.452737,30.3033333 178.10607,33.8266667 179.412737,37 C180.719404,40.1733333 182.527737,42.8916667 184.837737,45.155 C187.147737,47.4183333 189.90107,49.1683333 193.097737,50.405 C196.294404,51.6416667 199.80607,52.26 203.632737,52.26 Z M232.861968,51 L236.701968,41.28 L255.121968,41.28 L259.081968,51 L267.721968,51 L249.421968,8.52 L242.881968,8.52 L224.401968,51 L232.861968,51 Z M252.481968,34.8 L239.281968,34.8 L245.941968,17.52 L252.481968,34.8 Z M278.536254,51 L278.536254,33.42 L283.936254,33.42 C286.176254,33.42 288.326254,33.26 290.386254,32.94 C292.446254,32.62 294.256254,32.01 295.816254,31.11 C297.376254,30.21 298.616254,28.94 299.536254,27.3 C300.456254,25.66 300.916254,23.5 300.916254,20.82 C300.916254,18.46 300.486254,16.49 299.626254,14.91 C298.766254,13.33 297.616254,12.07 296.176254,11.13 C294.736254,10.19 293.066254,9.52 291.166254,9.12 C289.266254,8.72 287.296254,8.52 285.256254,8.52 L285.256254,8.52 L270.976254,8.52 L270.976254,51 L278.536254,51 Z M283.096254,26.94 L278.536254,26.94 L278.536254,15 L283.936254,15 C284.936254,15 285.976254,15.06 287.056254,15.18 C288.136254,15.3 289.116254,15.57 289.996254,15.99 C290.876254,16.41 291.596254,17.01 292.156254,17.79 C292.716254,18.57 292.996254,19.62 292.996254,20.94 C292.996254,22.38 292.686254,23.5 292.066254,24.3 C291.446254,25.1 290.646254,25.7 289.666254,26.1 C288.686254,26.5 287.616254,26.74 286.456254,26.82 C285.296254,26.9 284.176254,26.94 283.096254,26.94 L283.096254,26.94 Z M313.53054,51 L313.53054,8.52 L305.97054,8.52 L305.97054,51 L313.53054,51 Z M337.604826,51 L337.604826,15.36 L350.624826,15.36 L350.624826,8.52 L317.024826,8.52 L317.024826,15.36 L330.044826,15.36 L330.044826,51 L337.604826,51 Z M356.699112,51 L360.539112,41.28 L378.959112,41.28 L382.919112,51 L391.559112,51 L373.259112,8.52 L366.719112,8.52 L348.239112,51 L356.699112,51 Z M376.319112,34.8 L363.119112,34.8 L369.779112,17.52 L376.319112,34.8 Z M423.433398,51 L423.433398,44.16 L405.373398,44.16 L405.373398,8.52 L397.813398,8.52 L397.813398,51 L423.433398,51 Z M449.40681,51 L449.40681,30.49 L455.70681,30.49 C458.320143,30.49 460.828477,30.3033333 463.23181,29.93 C465.635143,29.5566667 467.74681,28.845 469.56681,27.795 C471.38681,26.745 472.833477,25.2633333 473.90681,23.35 C474.980143,21.4366667 475.51681,18.9166667 475.51681,15.79 C475.51681,13.0366667 475.015143,10.7383333 474.01181,8.895 C473.008477,7.05166667 471.66681,5.58166667 469.98681,4.485 C468.30681,3.38833333 466.358477,2.60666667 464.14181,2.14 C461.925143,1.67333333 459.62681,1.44 457.24681,1.44 L457.24681,1.44 L440.58681,1.44 L440.58681,51 L449.40681,51 Z M454.72681,22.93 L449.40681,22.93 L449.40681,9 L455.70681,9 C456.873477,9 458.08681,9.07 459.34681,9.21 C460.60681,9.35 461.750143,9.665 462.77681,10.155 C463.803477,10.645 464.643477,11.345 465.29681,12.255 C465.950143,13.165 466.27681,14.39 466.27681,15.93 C466.27681,17.61 465.915143,18.9166667 465.19181,19.85 C464.468477,20.7833333 463.535143,21.4833333 462.39181,21.95 C461.248477,22.4166667 460.000143,22.6966667 458.64681,22.79 C457.293477,22.8833333 455.98681,22.93 454.72681,22.93 L454.72681,22.93 Z M479.423205,51 L483.263205,41.28 L501.683205,41.28 L505.643205,51 L514.283205,51 L495.983205,8.52 L489.443205,8.52 L470.963205,51 L479.423205,51 Z M499.043205,34.8 L485.843205,34.8 L492.503205,17.52 L499.043205,34.8 Z M526.733855,51 L526.733855,33 L532.253855,33 L542.093855,51 L551.213855,51 L539.933855,32.22 C543.093855,31.78 545.523855,30.52 547.223855,28.44 C548.923855,26.36 549.773855,23.78 549.773855,20.7 C549.773855,18.3 549.333855,16.32 548.453855,14.76 C547.573855,13.2 546.393855,11.96 544.913855,11.04 C543.433855,10.12 541.743855,9.47 539.843855,9.09 C537.943855,8.71 535.973855,8.52 533.933855,8.52 L533.933855,8.52 L519.173855,8.52 L519.173855,51 L526.733855,51 Z M532.613855,26.52 L526.733855,26.52 L526.733855,15 L533.273855,15 C534.233855,15 535.223855,15.06 536.243855,15.18 C537.263855,15.3 538.193855,15.55 539.033855,15.93 C539.873855,16.31 540.553855,16.88 541.073855,17.64 C541.593855,18.4 541.853855,19.4 541.853855,20.64 C541.853855,22.04 541.573855,23.13 541.013855,23.91 C540.453855,24.69 539.723855,25.27 538.823855,25.65 C537.923855,26.03 536.933855,26.27 535.853855,26.37 C534.773855,26.47 533.693855,26.52 532.613855,26.52 L532.613855,26.52 Z M573.068141,51 L573.068141,15.36 L586.088141,15.36 L586.088141,8.52 L552.488141,8.52 L552.488141,15.36 L565.508141,15.36 L565.508141,51 L573.068141,51 Z M599.722427,51 L599.722427,18.42 L599.842427,18.42 L620.842427,51 L630.442427,51 L630.442427,8.52 L622.882427,8.52 L622.882427,40.08 L622.762427,40.08 L602.182427,8.52 L592.162427,8.52 L592.162427,51 L599.722427,51 Z M670.056713,51 L670.056713,44.16 L648.396713,44.16 L648.396713,32.64 L667.896713,32.64 L667.896713,25.8 L648.396713,25.8 L648.396713,15.36 L668.976713,15.36 L668.976713,8.52 L640.836713,8.52 L640.836713,51 L670.056713,51 Z M685.970999,51 L685.970999,33 L691.490999,33 L701.330999,51 L710.450999,51 L699.170999,32.22 C702.330999,31.78 704.760999,30.52 706.460999,28.44 C708.160999,26.36 709.010999,23.78 709.010999,20.7 C709.010999,18.3 708.570999,16.32 707.690999,14.76 C706.810999,13.2 705.630999,11.96 704.150999,11.04 C702.670999,10.12 700.980999,9.47 699.080999,9.09 C697.180999,8.71 695.210999,8.52 693.170999,8.52 L693.170999,8.52 L678.410999,8.52 L678.410999,51 L685.970999,51 Z M691.850999,26.52 L685.970999,26.52 L685.970999,15 L692.510999,15 C693.470999,15 694.460999,15.06 695.480999,15.18 C696.500999,15.3 697.430999,15.55 698.270999,15.93 C699.110999,16.31 699.790999,16.88 700.310999,17.64 C700.830999,18.4 701.090999,19.4 701.090999,20.64 C701.090999,22.04 700.810999,23.13 700.250999,23.91 C699.690999,24.69 698.960999,25.27 698.060999,25.65 C697.160999,26.03 696.170999,26.27 695.090999,26.37 C694.010999,26.47 692.930999,26.52 691.850999,26.52 L691.850999,26.52 Z M728.165285,52.08 C730.245285,52.08 732.225285,51.8 734.105285,51.24 C735.985285,50.68 737.635285,49.84 739.055285,48.72 C740.475285,47.6 741.605285,46.19 742.445285,44.49 C743.285285,42.79 743.705285,40.8 743.705285,38.52 C743.705285,36 743.205285,33.98 742.205285,32.46 C741.205285,30.94 739.965285,29.72 738.485285,28.8 C737.005285,27.88 735.385285,27.16 733.625285,26.64 C731.865285,26.12 730.245285,25.58 728.765285,25.02 C727.285285,24.46 726.045285,23.8 725.045285,23.04 C724.045285,22.28 723.545285,21.18 723.545285,19.74 C723.545285,18.78 723.745285,17.95 724.145285,17.25 C724.545285,16.55 725.075285,15.98 725.735285,15.54 C726.395285,15.1 727.135285,14.78 727.955285,14.58 C728.775285,14.38 729.625285,14.28 730.505285,14.28 C731.985285,14.28 733.395285,14.55 734.735285,15.09 C736.075285,15.63 737.145285,16.48 737.945285,17.64 L737.945285,17.64 L743.465285,11.82 C741.785285,10.26 739.895285,9.14 737.795285,8.46 C735.695285,7.78 733.525285,7.44 731.285285,7.44 C729.325285,7.44 727.405285,7.7 725.525285,8.22 C723.645285,8.74 721.975285,9.53 720.515285,10.59 C719.055285,11.65 717.875285,12.98 716.975285,14.58 C716.075285,16.18 715.625285,18.08 715.625285,20.28 C715.625285,22.8 716.125285,24.81 717.125285,26.31 C718.125285,27.81 719.365285,29.01 720.845285,29.91 C722.325285,30.81 723.945285,31.52 725.705285,32.04 C727.465285,32.56 729.085285,33.11 730.565285,33.69 C732.045285,34.27 733.285285,34.98 734.285285,35.82 C735.285285,36.66 735.785285,37.86 735.785285,39.42 C735.785285,40.38 735.565285,41.23 735.125285,41.97 C734.685285,42.71 734.105285,43.32 733.385285,43.8 C732.665285,44.28 731.865285,44.64 730.985285,44.88 C730.105285,45.12 729.225285,45.24 728.345285,45.24 C726.665285,45.24 725.075285,44.85 723.575285,44.07 C722.075285,43.29 720.865285,42.2 719.945285,40.8 L719.945285,40.8 L714.245285,46.32 C716.005285,48.4 718.105285,49.88 720.545285,50.76 C722.985285,51.64 725.525285,52.08 728.165285,52.08 Z" id="path-1"></path>
    </defs>
    <g id="Page-1" stroke="none" stroke-width="1" fill="none" fill-rule="evenodd">
        <g id="ALTACAPITALPARTNERS" fill-rule="nonzero" fill="#FFFFFF">
            <use xlink:href="#path-1"></use>
            <use xlink:href="#path-1"></use>
        </g>
    </g>
</svg>